PathFileType	4	(X/Y/Z)	C:\Users\Basilio\Documents\Thesis Gigler\squatting_fais\c3dfiles\041\SLS_pre_front5\markers_experimental.trc
DataRate	CameraRate	NumFrames	NumMarkers	Units	OrigDataRate	OrigDataStartFrame	OrigNumFrames
200.000000	200.000000	4	62	mm	200.000000	966	1289
Frame#	Time	FHD			LBHD			RBHD			C7			T10			CLAV			LSHO			LUUPA			LMUPA			LDUPA			LLEP			LMEP			LRAD			LUL			LRFIN			RSHO			RUPA1			RMUPA			RDUPA			RLEP			RMEP			RRAD			RUL			RUFIN			LASI			RASI			USACR			LSACR			RSACR			LTHI1			LTHI2			LTHI3			LTHI4			LLFC			LMFC			LTIB1			LTIB2			LTIB3			LTIB4			LLMAL			LMMAL			LHEE			LMT1			LMT2			LMT5			RTHI			RTHI2			RTHI3			RTHI4			RLFC			RMFC			RTIB1			RTIB2			RTIB3			RTIB4			RLMAL			RMMAL			RHEE			RMT1			RMT2			RMT5			*61			
		X1	Y1	Z1	X2	Y2	Z2	X3	Y3	Z3	X4	Y4	Z4	X5	Y5	Z5	X6	Y6	Z6	X7	Y7	Z7	X8	Y8	Z8	X9	Y9	Z9	X10	Y10	Z10	X11	Y11	Z11	X12	Y12	Z12	X13	Y13	Z13	X14	Y14	Z14	X15	Y15	Z15	X16	Y16	Z16	X17	Y17	Z17	X18	Y18	Z18	X19	Y19	Z19	X20	Y20	Z20	X21	Y21	Z21	X22	Y22	Z22	X23	Y23	Z23	X24	Y24	Z24	X25	Y25	Z25	X26	Y26	Z26	X27	Y27	Z27	X28	Y28	Z28	X29	Y29	Z29	X30	Y30	Z30	X31	Y31	Z31	X32	Y32	Z32	X33	Y33	Z33	X34	Y34	Z34	X35	Y35	Z35	X36	Y36	Z36	X37	Y37	Z37	X38	Y38	Z38	X39	Y39	Z39	X40	Y40	Z40	X41	Y41	Z41	X42	Y42	Z42	X43	Y43	Z43	X44	Y44	Z44	X45	Y45	Z45	X46	Y46	Z46	X47	Y47	Z47	X48	Y48	Z48	X49	Y49	Z49	X50	Y50	Z50	X51	Y51	Z51	X52	Y52	Z52	X53	Y53	Z53	X54	Y54	Z54	X55	Y55	Z55	X56	Y56	Z56	X57	Y57	Z57	X58	Y58	Z58	X59	Y59	Z59	X60	Y60	Z60	X61	Y61	Z61	X62	Y62	Z62	

967	4.83	-199.0504150390626	1776.725952148438	-1023.909790039063	-369.9023132324219	1700.132934570313	-1104.16162109375	-352.6300659179688	1700.140380859375	-952.1433715820315	-404.3040161132814	1560.855346679688	-1040.328247070313	-442.448699951172	1244.534912109375	-1013.723815917969	-244.7066955566407	1495.087890625	-1043.500244140625	-334.3209533691407	1544.444580078125	-1202.89111328125	-348.8392333984376	1425.031127929688	-1351.179443359375	-304.2673034667969	1411.131713867188	-1364.678833007813	-340.1100769042969	1381.053466796875	-1403.9873046875	-325.5734558105469	1346.85107421875	-1440.089477539063	-316.8863220214844	1271.809936523438	-1392.4326171875	-64.05660247802736	1266.055786132813	-1421.965698242188	-79.25406646728517	1240.728881835938	-1488.780151367188	11.35751628875733	1275.452270507813	-1442.94775390625	-316.3373718261719	1559.110473632813	-891.0516357421877	-284.7431335449219	1455.514526367188	-714.3075561523439	-238.9654541015626	1474.759521484375	-722.3366699218751	-228.4834289550782	1444.6640625	-672.6686401367189	-189.705322265625	1430.204833984375	-647.0227050781251	-194.5768585205079	1346.422973632813	-682.8860473632814	49.13153457641603	1349.704467773438	-742.9183349609376	61.0316505432129	1349.910034179688	-666.8731689453126	128.0399169921875	1335.552368164063	-758.8742675781251	-276.2641296386719	1047.6513671875	-1111.695922851563	-285.9507751464844	1056.86767578125	-887.1008300781252	-457.3824157714845	1128.264038085938	-1008.440124511719	-472.0059509277345	1101.494750976563	-1034.56787109375	-477.6519775390626	1103.479614257813	-980.4309082031252	-370.3813781738282	834.9348144531252	-1171.068359375	-325.2842712402344	763.3250732421876	-1164.441162109375	-278.1560668945313	772.8516845703127	-1155.9072265625	-345.6127014160157	707.1460571289064	-1151.691040039063	-305.2944030761719	533.7282714843751	-1128.05126953125	-305.4147644042969	520.3926391601564	-1009.44970703125	-290.4902648925782	343.4640502929688	-1064.521240234375	-337.1717834472657	302.9020080566407	-1127.373779296875	-299.7765808105469	296.5754699707032	-1100.079711914063	-314.0186462402344	220.666244506836	-1064.587280273438	-379.8698120117188	131.5962982177735	-1103.536499023438	-344.5537414550782	135.8199157714844	-1020.692749023438	-447.3089599609376	116.5824890136719	-1061.993530273438	-240.4690399169922	61.92794036865236	-1038.673583984375	-232.7556610107422	59.25653076171876	-1084.51171875	-284.6951293945313	46.1749382019043	-1136.65234375	-296.1690368652344	801.3282470703127	-809.5550537109377	-238.5713500976563	769.232360839844	-816.4617309570315	-211.5585021972657	783.5567626953127	-825.9830322265627	-230.4978179931641	685.1914672851564	-822.0557861328127	-186.6968994140625	577.2989501953126	-820.1105957031252	-182.2447509765625	553.7758789062501	-936.8342895507815	-162.2365417480469	409.8208618164064	-817.932312011719	-249.0063629150391	343.5127258300782	-787.171081542969	-202.6403350830079	336.0559997558594	-793.6289062500002	-187.872787475586	284.2848510742188	-819.4133300781252	-251.0885009765626	172.5139923095703	-787.8606567382815	-231.3160552978516	183.9564208984375	-871.7131347656252	-319.4652099609376	136.7155151367188	-829.6052246093752	-108.0260467529297	111.0223770141602	-867.2624511718752	-95.33555603027345	117.6816787719727	-816.1918945312502	-134.7259979248047	99.31011199951175	-764.2985839843751	-4216.987304687501	853.167419433594	-3944.591064453126	
968	4.835	-198.9337005615235	1776.937622070313	-1022.923767089844	-369.6291809082032	1700.296020507813	-1103.041870117188	-352.4697570800782	1700.070190429688	-950.842956542969	-404.0858764648439	1560.919921875	-1039.540649414063	-441.8080139160157	1244.465087890625	-1012.8251953125	-244.5450744628907	1494.949340820313	-1042.69482421875	-333.9079284667969	1544.449462890625	-1202.314819335938	-348.8305969238282	1423.289306640625	-1350.02880859375	-305.5190124511719	1409.000366210938	-1362.983764648438	-341.6269226074219	1378.781860351563	-1401.978759765625	-327.5928039550782	1344.081909179688	-1437.757080078125	-318.6295471191407	1269.308471679688	-1389.408203125	-66.82065582275392	1260.535278320313	-1420.270385742188	-82.94932556152345	1234.650268554688	-1486.456665039063	8.636348724365236	1268.456665039063	-1441.372802734375	-315.8196105957032	1558.889404296875	-889.7908935546877	-285.5973205566407	1453.3779296875	-713.3222045898439	-239.880599975586	1472.409545898438	-720.7713623046876	-229.6513214111329	1441.855346679688	-671.4346923828126	-191.3060455322266	1426.876098632813	-645.5953979492189	-196.6663513183594	1343.31591796875	-682.2317504882814	47.0847511291504	1344.072387695313	-741.1963500976564	58.39825820922853	1343.77001953125	-664.9947509765626	125.8848876953125	1329.23486328125	-756.8924560546876	-275.4401245117188	1047.793579101563	-1111.197265625	-285.1048278808594	1056.7861328125	-886.6814575195315	-456.7941284179689	1128.374267578125	-1007.958557128906	-471.3474121093751	1101.616455078125	-1033.873168945313	-477.1278686523439	1103.602905273438	-979.7504882812502	-369.9922485351563	835.1389160156252	-1170.594970703125	-325.1061706542969	763.4704589843751	-1164.043579101563	-277.8829040527344	772.907897949219	-1155.5986328125	-345.4641113281251	707.3205566406251	-1151.259765625	-305.2487487792969	533.8021850585939	-1127.914306640625	-305.5479736328126	520.3845825195314	-1009.090576171875	-290.5220336914063	343.4737243652344	-1064.470336914063	-337.2449951171876	302.9498291015626	-1127.328857421875	-299.8363342285157	296.5014648437501	-1100.107177734375	-314.0195922851563	220.6435546875001	-1064.596435546875	-379.9081726074219	131.6258697509766	-1103.542846679688	-344.5042724609376	135.8352661132813	-1020.700622558594	-447.2910461425782	116.5023040771485	-1061.994018554688	-240.4255371093751	61.93197631835939	-1038.656127929688	-232.1570434570313	59.70822143554689	-1084.532592773438	-284.6971435546876	46.14876174926759	-1136.726684570313	-296.5912475585938	800.9873657226565	-809.0825195312502	-239.0299377441407	768.7974243164065	-815.4790649414065	-211.8801269531251	782.9399414062502	-825.1970825195315	-231.6626739501954	684.4658203125001	-821.243103027344	-188.2580718994141	576.5771484375001	-819.1744384765627	-184.0103149414063	552.6923828125001	-935.8212890625002	-164.7026519775391	408.8873291015626	-816.6018066406252	-252.1297760009766	343.1945495605469	-785.388854980469	-205.8348083496094	335.2670898437501	-791.7998046875002	-191.3532104492188	283.5709533691407	-817.4310302734377	-255.3947906494141	172.2254638671875	-785.632507324219	-235.8074035644532	183.3799591064453	-869.475036621094	-323.9074401855469	136.9910278320313	-827.003356933594	-113.2318572998047	109.4906234741211	-865.312194824219	-100.3730545043946	115.9473419189453	-814.1253051757815	-139.5089569091797	98.18221282958987	-762.4425659179689	-4216.817871093751	853.1196289062502	-3944.669921875001	
969	4.84	-198.6669311523438	1777.029052734375	-1021.653259277344	-369.3504028320313	1700.477294921875	-1102.000122070313	-352.1405944824219	1700.102783203125	-949.8212890625002	-403.7090759277345	1560.915893554688	-1038.593872070313	-441.0279846191407	1244.417846679688	-1012.095336914063	-244.4258728027344	1494.952026367188	-1041.783813476563	-333.5820007324219	1544.386108398438	-1201.724609375	-350.6548461914063	1421.765502929688	-1347.989013671875	-306.2650756835938	1406.570068359375	-1361.451293945313	-343.0568847656251	1376.482666015625	-1399.94970703125	-329.5748901367188	1341.358276367188	-1435.42529296875	-321.3243103027344	1266.99365234375	-1386.621704101563	-69.60245513916017	1254.615356445313	-1418.081176757813	-86.54827880859376	1228.442749023438	-1484.055419921875	5.885138988494874	1261.442138671875	-1439.891235351563	-315.1486816406251	1558.677368164063	-888.559997558594	-286.4040527343751	1451.345458984375	-712.5199584960939	-240.2330780029297	1470.064086914063	-719.6132202148439	-230.8994598388672	1438.9541015625	-670.5269775390626	-192.8464813232422	1423.441528320313	-644.4385375976564	-198.9200286865235	1340.178588867188	-681.8061523437501	45.16186523437501	1338.612182617188	-739.4406127929689	56.10299301147462	1337.682250976563	-663.2734375000001	123.524528503418	1322.989135742188	-754.8038940429689	-274.4738464355469	1047.666015625	-1110.65771484375	-284.3605651855469	1056.744140625	-886.0000000000002	-455.9247131347657	1128.291137695313	-1007.137451171875	-470.1946411132814	1101.5576171875	-1033.060424804688	-476.1535034179689	1103.67333984375	-979.0596923828127	-369.7837524414063	835.3435668945315	-1170.159912109375	-324.8597412109376	763.5637207031251	-1163.719604492188	-277.6260681152344	772.9229125976565	-1155.270141601563	-345.2816772460938	707.3648681640626	-1151.094360351563	-305.3029785156251	533.8295898437501	-1127.705200195313	-304.5288696289063	520.2577514648439	-1009.263916015625	-290.4375610351563	343.4704589843751	-1064.478637695313	-336.8799438476563	302.6336669921876	-1127.256469726563	-299.9706726074219	296.5697021484376	-1100.025268554688	-313.9790954589844	220.6464538574219	-1064.674560546875	-379.9160156250001	131.6207122802735	-1103.541748046875	-344.4772033691407	135.8548431396485	-1020.723693847656	-447.2509765625001	116.4735565185547	-1062.010986328125	-240.4720306396485	61.95380020141603	-1038.687133789063	-233.3629455566407	59.31430816650392	-1084.738647460938	-284.2887268066407	45.90842056274415	-1136.580078125	-296.6832580566407	800.666931152344	-808.0650634765627	-239.4622497558594	768.192321777344	-814.8022460937502	-212.137924194336	782.0300292968752	-824.6179809570315	-232.4034423828126	683.8496093750001	-820.4826660156252	-189.680419921875	575.7249145507814	-818.1714477539065	-185.1305389404297	551.3721313476564	-934.9396972656252	-167.1038818359375	407.6046752929689	-815.2645263671877	-254.9198303222657	343.0315856933594	-783.619812011719	-208.8347320556641	334.9062805175782	-790.0559082031252	-194.9383392333985	282.8507995605469	-815.806579589844	-259.6744384765626	172.0767669677735	-783.4314575195315	-240.4878692626954	182.9964141845703	-867.3591918945315	-328.5275878906251	137.1425323486328	-824.1995239257815	-118.1751785278321	107.7034072875977	-863.297058105469	-105.1483993530274	114.4387588500977	-812.5823974609377	-144.4169464111328	96.8370056152344	-760.2389526367189	-4216.798828125001	853.182312011719	-3944.633544921876	
970	4.845	-198.4721069335938	1777.122192382813	-1020.445861816406	-369.2472229003907	1700.6328125	-1100.925048828125	-351.8875427246094	1700.012939453125	-948.7121582031252	-403.2605895996095	1560.945556640625	-1037.589233398438	-440.4559326171876	1244.334350585938	-1011.339660644531	-243.6732635498047	1495.268920898438	-1040.768188476563	-333.1379699707032	1544.381469726563	-1201.066528320313	-351.4357604980469	1420.0107421875	-1346.450561523438	-307.3465881347657	1404.307739257813	-1359.718505859375	-344.4593811035157	1374.135986328125	-1397.801147460938	-331.5558166503907	1338.682983398438	-1432.974243164063	-323.9103698730469	1264.711059570313	-1383.376098632813	-72.6896438598633	1249.065673828125	-1415.959838867188	-90.2045135498047	1222.302612304688	-1481.701782226563	2.92931079864502	1254.406005859375	-1438.276000976563	-314.6303710937501	1558.470581054688	-887.276550292969	-287.2748718261719	1449.45361328125	-711.4317016601564	-240.7431182861329	1467.600463867188	-718.3518066406251	-231.9501190185547	1436.134155273438	-669.4156494140626	-194.6275024414063	1419.970581054688	-642.8356323242189	-201.1693115234376	1337.065551757813	-681.2493896484376	42.99766159057618	1333.208251953125	-737.5989379882814	53.73288345336915	1331.53173828125	-661.5877075195314	121.6330642700196	1316.691040039063	-752.9206542968751	-274.3337402343751	1047.892211914063	-1110.286743164063	-283.6416320800782	1056.592895507813	-885.460876464844	-455.1837158203126	1128.452270507813	-1006.418579101563	-470.0661926269532	1101.964111328125	-1032.339111328125	-475.884735107422	1103.688720703125	-978.441345214844	-369.4787597656251	835.5872802734377	-1169.671020507813	-324.6699523925782	763.6740112304689	-1163.394897460938	-277.2909851074219	772.985534667969	-1154.88916015625	-345.1305847167969	707.4602661132814	-1150.794311523438	-305.2728881835938	533.9104003906251	-1127.514770507813	-304.3870544433594	520.2612915039064	-1009.029174804688	-290.4490966796876	343.4899902343751	-1064.359252929688	-337.3182678222657	303.0385131835938	-1127.249267578125	-299.8884582519532	296.6089172363282	-1099.974243164063	-313.9823303222657	220.6458129882813	-1064.64453125	-379.9146118164063	131.6395874023438	-1103.55224609375	-344.4808044433594	135.8100738525391	-1020.739807128906	-447.2518310546876	116.4839324951172	-1062.03564453125	-240.4624176025391	61.9713706970215	-1038.721435546875	-234.5293579101563	58.76486206054689	-1084.925903320313	-284.6707763671876	46.14194869995118	-1136.685668945313	-296.7561035156251	800.342224121094	-807.5175781250002	-239.6775970458985	767.3370361328126	-814.372253417969	-212.543197631836	781.0338134765627	-823.8988037109377	-233.3995513916016	683.2470703125001	-819.6040039062502	-191.155746459961	574.8783569335939	-816.9859619140627	-187.298095703125	550.1925659179689	-933.6265869140627	-169.8319854736328	407.0667114257814	-813.772888183594	-258.1120910644532	342.7490844726563	-781.794616699219	-212.2052764892579	334.2493591308594	-788.3515625000002	-198.6385803222657	282.0504150390626	-813.9538574218752	-264.0200195312501	171.9424591064453	-781.128112792969	-244.1512298583985	181.7184600830078	-865.1338500976565	-333.1517333984376	137.2761993408203	-821.5102539062502	-123.6459884643555	106.5818252563477	-861.5191650390627	-110.054428100586	112.8740158081055	-810.4451904296877	-148.9518280029297	95.91949462890626	-758.3660888671876	-4216.997070312501	853.178405761719	-3944.607177734376	
